<svg width="104" height="40" viewBox="0 0 104 40" fill="none" xmlns="http://www.w3.org/2000/svg">
<path d="M1.728 39.36V13.44H16.16C17.376 13.44 18.4107 13.8773 19.264 14.752C20.1387 15.6053 20.576 16.64 20.576 17.856V27.584C20.576 28.8 20.1387 29.8453 19.264 30.72C18.4107 31.5733 17.376 32 16.16 32H5.92V39.36H1.728ZM7.04 27.808H15.264C15.8613 27.808 16.192 27.776 16.256 27.712C16.3413 27.6267 16.384 27.2853 16.384 26.688V18.752C16.384 18.1547 16.3413 17.824 16.256 17.76C16.192 17.6747 15.8613 17.632 15.264 17.632H7.04C6.44267 17.632 6.10133 17.6747 6.016 17.76C5.952 17.824 5.92 18.1547 5.92 18.752V26.688C5.92 27.2853 5.952 27.6267 6.016 27.712C6.10133 27.776 6.44267 27.808 7.04 27.808ZM27.298 32C26.082 32 25.0367 31.5733 24.162 30.72C23.3087 29.8453 22.882 28.8 22.882 27.584V17.856C22.882 16.64 23.3087 15.6053 24.162 14.752C25.0367 13.8773 26.082 13.44 27.298 13.44H37.314C38.53 13.44 39.5647 13.8773 40.418 14.752C41.2927 15.6053 41.73 16.64 41.73 17.856V24.832H27.074V26.688C27.074 27.2853 27.106 27.6267 27.17 27.712C27.2553 27.776 27.5967 27.808 28.194 27.808H41.73V32H27.298ZM27.074 21.056H37.538V18.752C37.538 18.1547 37.4953 17.824 37.41 17.76C37.346 17.6747 37.0153 17.632 36.418 17.632H28.194C27.5967 17.632 27.2553 17.6747 27.17 17.76C27.106 17.824 27.074 18.1547 27.074 18.752V21.056ZM49.5183 32C48.3023 32 47.2569 31.5733 46.3823 30.72C45.5289 29.8453 45.1023 28.8 45.1023 27.584V7.744H49.2943V13.44H56.5263V17.632H49.2943V26.688C49.2943 27.2853 49.3263 27.6267 49.3903 27.712C49.4756 27.776 49.8169 27.808 50.4143 27.808H56.5263V32H49.5183ZM63.4855 32C62.2695 32 61.2242 31.5733 60.3495 30.72C59.4962 29.8453 59.0695 28.8 59.0695 27.584V17.856C59.0695 16.64 59.4962 15.6053 60.3495 14.752C61.2242 13.8773 62.2695 13.44 63.4855 13.44H73.5015C74.7175 13.44 75.7522 13.8773 76.6055 14.752C77.4802 15.6053 77.9175 16.64 77.9175 17.856V24.832H63.2615V26.688C63.2615 27.2853 63.2935 27.6267 63.3575 27.712C63.4428 27.776 63.7842 27.808 64.3815 27.808H77.9175V32H63.4855ZM63.2615 21.056H73.7255V18.752C73.7255 18.1547 73.6828 17.824 73.5975 17.76C73.5335 17.6747 73.2028 17.632 72.6055 17.632H64.3815C63.7842 17.632 63.4428 17.6747 63.3575 17.76C63.2935 17.824 63.2615 18.1547 63.2615 18.752V21.056Z" fill="white"/>
<rect x="84" y="18" width="20" height="14" fill="#01A9B4"/>
</svg>
